<?xml version="1.0" encoding="utf-8"?>
<!-- Svg Vector Icons : http://www.onlinewebfonts.com/icon -->
<!DOCTYPE svg PUBLIC "-//W3C//DTD SVG 1.1//EN" "http://www.w3.org/Graphics/SVG/1.1/DTD/svg11.dtd">
<svg version="1.1" xmlns="http://www.w3.org/2000/svg" xmlns:xlink="http://www.w3.org/1999/xlink" x="0px" y="0px" viewBox="0 0 1000 1000" enable-background="new 0 0 1000 1000" xml:space="preserve">
<metadata> Svg Vector Icons : http://www.onlinewebfonts.com/icon </metadata>
<g><g><path fill="#db3437" d="M348.4,500c-50.9,0-94.4-18-130.5-54.1c-36-36-54.1-79.5-54.1-130.5c0-50.9,18-94.4,54.1-130.5s79.5-54.1,130.5-54.1c50.9,0,94.4,18,130.5,54.1c36,36,54.1,79.5,54.1,130.5c0,50.9-18,94.4-54.1,130.5C442.8,482,399.3,500,348.4,500z M866,653.8l119.7,119.7c2.9,2.9,4.3,6.6,4.3,11.1c0,4.2-1.4,7.7-4.3,10.6l-65.4,65.4c-2.9,2.9-6.4,4.3-10.6,4.3c-4.5,0-8.2-1.4-11.1-4.3L779,740.8L659.3,860.5c-2.9,2.9-6.6,4.3-11.1,4.3c-4.2,0-7.7-1.4-10.6-4.3l-65.4-65.4c-2.9-2.9-4.3-6.4-4.3-10.6c0-4.5,1.4-8.2,4.3-11.1L692,653.8L572.3,534.1c-2.9-2.9-4.3-6.6-4.3-11.1c0-4.2,1.4-7.7,4.3-10.6l65.4-65.4c2.9-2.9,6.4-4.3,10.6-4.3c4.5,0,8.2,1.4,11.1,4.3L779,566.8l119.7-119.7c2.9-2.9,6.6-4.3,11.1-4.3c4.2,0,7.7,1.4,10.6,4.3l65.4,65.4c2.9,2.9,4.3,6.4,4.3,10.6c0,4.5-1.4,8.2-4.3,11.1L866,653.8z M626.6,653.8l-87,87c-11.9,11.9-17.8,26.4-17.8,43.7c0,17,5.9,31.4,17.8,43.3l39.9,39.9c-6.7,1-13.8,1.4-21.1,1.4H138.3c-38.8,0-69.9-11.1-93.2-33.2S10,783.4,10,744.6c0-17,0.6-33.6,1.7-49.7c1.1-16.2,3.4-33.6,6.7-52.4c3.4-18.7,7.6-36.1,12.7-52.1s12-31.6,20.7-46.9c8.7-15.2,18.6-28.2,29.8-38.9c11.2-10.7,24.9-19.3,41.1-25.7s34-9.6,53.6-9.6c6.1,0,12.3,2.7,18.7,8.2c49.3,39.1,100.5,58.6,153.3,58.6c52.9,0,104-19.5,153.3-58.6c6.4-5.4,12.7-8.2,18.7-8.2c9,0,18.1,1,27.4,2.9c-9,8.7-15.5,16.7-19.7,24c-4.2,7.4-6.3,16.3-6.3,26.9c0,17.3,5.9,31.9,17.8,43.7L626.6,653.8z"/></g></g>
</svg>